<svg width="48" height="69" viewBox="0 0 48 69" fill="none" xmlns="http://www.w3.org/2000/svg">
<rect x="1" y="1" width="66.1103" height="46" rx="5" transform="matrix(4.37114e-08 -1 -1 -4.37114e-08 48 68.3203)" fill="#03441F"/>
<rect x="1" y="1" width="66.1103" height="46" rx="5" transform="matrix(4.37114e-08 -1 -1 -4.37114e-08 48 68.3203)" stroke="#03441F" stroke-width="2"/>
<path d="M15.4142 32.8509C14.6332 33.632 14.6332 34.8983 15.4142 35.6793L21.5834 41.8485C21.733 41.9981 21.9105 42.1167 22.106 42.1977C22.3014 42.2786 22.5109 42.3203 22.7224 42.3203C22.9339 42.3203 23.1434 42.2786 23.3389 42.1977C23.5343 42.1167 23.7119 41.9981 23.8614 41.8485C24.011 41.6989 24.1297 41.5213 24.2106 41.3259C24.2916 41.1305 24.3333 40.921 24.3333 40.7095C24.3333 40.4979 24.2916 40.2885 24.2106 40.093C24.1297 39.8976 24.011 39.72 23.8614 39.5704L20.1672 35.8762L32.3889 35.8762C32.8162 35.8762 33.226 35.7065 33.5281 35.4043C33.8303 35.1022 34 34.6924 34 34.2651C34 33.8378 33.8303 33.4281 33.5281 33.1259C33.226 32.8238 32.8162 32.654 32.3889 32.654L20.1672 32.654L23.8614 28.9598C24.0116 28.8106 24.1307 28.6331 24.212 28.4376C24.2933 28.2421 24.3352 28.0325 24.3352 27.8208C24.3352 27.6091 24.2933 27.3995 24.212 27.204C24.1307 27.0085 24.0116 26.831 23.8614 26.6818C23.5593 26.3797 23.1496 26.2101 22.7224 26.2101C22.2952 26.2101 21.8855 26.3797 21.5834 26.6818L15.4142 32.8509Z" fill="#F5F9ED"/>
</svg>
