<svg width="48" height="69" viewBox="0 0 48 69" fill="none" xmlns="http://www.w3.org/2000/svg">
<rect x="1" y="67.3203" width="66.1103" height="46" rx="5" transform="rotate(-90 1 67.3203)" fill="#03441F"/>
<rect x="1" y="67.3203" width="66.1103" height="46" rx="5" transform="rotate(-90 1 67.3203)" stroke="#03441F" stroke-width="2"/>
<path d="M32.5858 32.8509C33.3668 33.632 33.3668 34.8983 32.5858 35.6793L26.4166 41.8485C26.267 41.9981 26.0895 42.1167 25.894 42.1977C25.6986 42.2786 25.4891 42.3203 25.2776 42.3203C25.0661 42.3203 24.8566 42.2786 24.6611 42.1977C24.4657 42.1167 24.2881 41.9981 24.1386 41.8485C23.989 41.6989 23.8703 41.5213 23.7894 41.3259C23.7084 41.1305 23.6667 40.921 23.6667 40.7095C23.6667 40.4979 23.7084 40.2885 23.7894 40.093C23.8703 39.8976 23.989 39.72 24.1386 39.5704L27.8328 35.8762L15.6111 35.8762C15.1838 35.8762 14.774 35.7065 14.4719 35.4043C14.1697 35.1022 14 34.6924 14 34.2651C14 33.8378 14.1697 33.4281 14.4719 33.1259C14.774 32.8238 15.1838 32.654 15.6111 32.654L27.8328 32.654L24.1386 28.9598C23.9884 28.8106 23.8693 28.6331 23.788 28.4376C23.7067 28.2421 23.6648 28.0325 23.6648 27.8208C23.6648 27.6091 23.7067 27.3995 23.788 27.204C23.8693 27.0085 23.9884 26.831 24.1386 26.6818C24.4407 26.3797 24.8504 26.2101 25.2776 26.2101C25.7048 26.2101 26.1145 26.3797 26.4166 26.6818L32.5858 32.8509Z" fill="#F5F9ED"/>
</svg>
