<?xml version="1.0" encoding="UTF-8" standalone="no"?>
<svg
   class="bottle"
   viewBox="0 0 158 377"
   fill="none"
   version="1.1"
   id="svg6"
   xmlns="http://www.w3.org/2000/svg"
   xmlns:svg="http://www.w3.org/2000/svg">
  <defs
     id="defs6" />
  <path
     id="path1"
     class="bottle-color"
     d="M 57.707031 0.8828125 C 56.370433 0.8828945 55.088777 1.4165616 54.142578 2.3691406 C 53.196279 3.3218897 52.664062 4.6160251 52.664062 5.9648438 L 52.669922 6.2167969 C 52.697022 6.8000863 52.823622 7.3750762 53.044922 7.9160156 C 53.297922 8.534255 53.668119 9.0952598 54.136719 9.5683594 C 54.605418 10.041509 55.162691 10.417928 55.775391 10.673828 C 56.31129 10.897728 56.880885 11.025988 57.458984 11.054688 L 57.707031 11.060547 L 59.5625 11.060547 C 52.236218 29.557101 47.472656 54.233997 47.472656 79.240234 L 47.476562 80.810547 C 47.529962 88.653339 48.07457 96.484373 49.105469 104.25977 L 49.21875 105.18164 C 49.727549 109.78964 49.273252 114.45682 47.876953 118.88281 C 46.387355 123.60281 43.865844 127.92807 40.498047 131.53906 L 40.496094 131.53906 L 17.287109 156.3457 L 17.287109 156.34766 L 16.84375 156.82227 C 7.7681291 166.71626 2.6588461 179.6492 2.5039062 193.11719 L 2.5 193.77148 L 2.5 355.13867 C 2.50005 357.68267 2.9973647 360.20174 3.9648438 362.55273 C 4.9323628 364.90273 6.3514537 367.03794 8.1386719 368.83594 C 9.9259501 370.63394 12.046462 372.05925 14.380859 373.03125 C 16.715057 374.00325 19.218443 374.502 21.744141 374.5 L 136.25781 374.5 L 136.72852 374.49414 C 139.09351 374.43714 141.42919 373.94225 143.61719 373.03125 C 145.95219 372.05925 148.07433 370.63394 149.86133 368.83594 C 151.64933 367.03794 153.0662 364.90273 154.0332 362.55273 C 154.9402 360.34874 155.43614 357.99528 155.49414 355.61328 L 155.5 355.13867 L 155.5 193.77148 C 155.505 179.8515 150.21288 166.45865 140.71289 156.34766 L 140.71289 156.3457 L 117.38672 131.54102 L 117.38477 131.53906 L 116.76367 130.85352 C 113.70567 127.38452 111.40381 123.30781 110.00781 118.88281 C 108.51781 114.16182 108.09539 109.16476 108.77539 104.25977 C 109.87539 95.966174 110.4212 87.607126 110.4082 79.240234 C 110.4082 54.233337 105.68869 29.556648 98.375 11.060547 L 100.29297 11.060547 C 100.95597 11.060547 101.61261 10.929828 102.22461 10.673828 C 102.83761 10.417928 103.39428 10.041409 103.86328 9.5683594 C 104.33128 9.0952498 104.70208 8.534265 104.95508 7.9160156 C 105.20808 7.2976562 105.33794 6.6338031 105.33594 5.9648438 C 105.33594 4.6160051 104.80342 3.3218997 103.85742 2.3691406 C 102.91142 1.4165416 101.62997 0.8828665 100.29297 0.8828125 L 57.707031 0.8828125 z " />
  <g
     id="g6"
     transform="matrix(0.9561124,0,0,0.97108699,2.9968591,8.5758165)">
    <path
       class="bottle-secondary-color"
       d="M 72.8115,2.36719 C 63.3843,21.5018 57.0753,50.1991 57.0752,79.2393 c -0.0146,7.8875 0.471,15.7675 1.4531,23.5917 l 0.2031,1.564 v 0.001 c 0.6579,4.76 0.2482,9.608 -1.1992,14.187 -1.3569,4.293 -3.5939,8.247 -6.5615,11.609 l -0.6025,0.664 -23.2676,24.806 c -9.6696,10.3 -15.0524,23.937 -15.043,38.109 v 161.367 l 0.0059,0.504 c 0.1279,5.206 2.2343,10.174 5.8965,13.872 2.2803,2.302 5.0524,3.998 8.0683,4.986 h -4.2851 c -2.5257,0.002 -5.0272,-0.497 -7.3614,-1.469 -2.3344,-0.972 -4.45585,-2.398 -6.24313,-4.196 C 6.35145,367.037 4.93334,364.902 3.96582,362.552 2.99834,360.201 2.50005,357.682 2.5,355.138 V 193.771 l 0.00391,-0.653 C 2.65885,179.65 7.76907,166.717 16.8447,156.823 l 0.4424,-0.476 v -0.001 l 23.209,-24.806 0.001,-0.001 c 3.3678,-3.611 8.14315,-7.937 9.63275,-12.657 1.3963,-4.426 1.8525,-9.093 1.3437,-13.701 l -0.1142,-0.921 c -1.0309,-7.7754 -1.5746,-15.6076 -1.628,-23.4504 l -0.0039,-1.5684 v -0.001 c 0,-29.1466 4.19005,-57.9064 13.65735,-76.87301 z"
       stroke="white"
       id="path3"
       style="stroke:none" />
    <path
       d="M 78.1582,169.015 C 53.6879,169.6 31.76,186.714 25.9688,211.828 c -1.0063,4.364 -1.4534,8.725 -1.418,13.016 H 3 v 79.935 h 152.998 v -79.935 h -21.549 c 0.252,-25.375 -16.952,-48.423 -42.5213,-54.399 -4.6195,-1.08 -9.238,-1.538 -13.7695,-1.43 z m 13.7422,27.481 c 0.2126,0.02 0.4187,0.063 0.6172,0.129 0.7955,0.262 1.4699,0.899 2.0918,1.832 0.6212,0.932 1.1515,2.1 1.6816,3.346 0.5232,1.229 1.0477,2.538 1.6465,3.681 0.5975,1.141 1.3004,2.183 2.2145,2.854 0.917,0.672 2.115,1.018 3.373,1.23 1.26,0.212 2.654,0.299 3.971,0.412 1.335,0.115 2.598,0.256 3.67,0.563 1.071,0.307 1.892,0.765 2.402,1.469 0.511,0.703 0.691,1.625 0.651,2.74 -0.041,1.116 -0.299,2.362 -0.604,3.67 -0.3,1.29 -0.649,2.647 -0.838,3.916 -0.188,1.267 -0.228,2.52 0.127,3.607 0.355,1.087 1.123,2.07 2.018,2.981 0.895,0.91 1.971,1.8 2.967,2.666 1.01,0.878 1.944,1.738 2.629,2.629 0.682,0.888 1.08,1.763 1.08,2.669 0,0.912 -0.399,1.791 -1.084,2.684 -0.687,0.895 -1.628,1.758 -2.641,2.637 -0.999,0.866 -2.075,1.754 -2.971,2.658 -0.894,0.903 -1.664,1.876 -2.015,2.947 -0.351,1.071 -0.308,2.32 -0.121,3.588 0.187,1.271 0.533,2.635 0.832,3.934 0.302,1.317 0.557,2.574 0.597,3.693 0.04,1.119 -0.139,2.033 -0.642,2.717 -0.505,0.686 -1.321,1.137 -2.393,1.441 -1.072,0.305 -2.337,0.449 -3.674,0.569 -1.319,0.118 -2.714,0.213 -3.978,0.433 -1.263,0.22 -2.466,0.575 -3.389,1.25 -0.925,0.677 -1.6213,1.723 -2.2069,2.867 -0.5864,1.146 -1.095,2.458 -1.6035,3.686 -0.5157,1.245 -1.034,2.411 -1.6563,3.338 -0.6212,0.925 -1.3105,1.56 -2.1445,1.82 -0.8392,0.262 -1.7698,0.144 -2.8066,-0.242 -1.0389,-0.387 -2.128,-1.019 -3.2637,-1.715 -1.1203,-0.686 -2.29,-1.437 -3.4375,-2.01 -1.1471,-0.572 -2.3322,-0.998 -3.5,-0.998 -1.1674,0 -2.363,0.428 -3.5215,1 -1.16,0.574 -2.3436,1.326 -3.4746,2.014 -1.1463,0.697 -2.2409,1.329 -3.2734,1.715 -1.0321,0.386 -1.9387,0.502 -2.7325,0.24 -0.7954,-0.262 -1.4699,-0.899 -2.0918,-1.832 -0.6212,-0.932 -1.1515,-2.102 -1.6816,-3.348 -0.5232,-1.229 -1.0477,-2.538 -1.6465,-3.681 -0.5975,-1.141 -1.3004,-2.183 -2.2148,-2.854 -0.9161,-0.672 -2.1155,-1.018 -3.3731,-1.23 -1.2595,-0.213 -2.652,-0.3 -3.9687,-0.414 -1.3351,-0.116 -2.5997,-0.257 -3.6719,-0.567 -1.0709,-0.309 -1.8897,-0.77 -2.4004,-1.478 -0.5111,-0.709 -0.6926,-1.632 -0.6523,-2.746 0.0403,-1.116 0.2986,-2.361 0.6035,-3.666 0.3007,-1.288 0.6497,-2.642 0.8379,-3.91 0.188,-1.268 0.2297,-2.521 -0.125,-3.612 -0.355,-1.092 -1.1269,-2.076 -2.0235,-2.984 -0.8972,-0.909 -1.9747,-1.795 -2.9726,-2.656 -1.0123,-0.874 -1.9494,-1.73 -2.6348,-2.618 -0.6832,-0.885 -1.082,-1.759 -1.082,-2.67 0,-0.911 0.401,-1.79 1.0879,-2.683 0.6884,-0.895 1.6285,-1.76 2.6426,-2.639 0.9995,-0.867 2.0778,-1.754 2.9726,-2.658 0.8938,-0.903 1.663,-1.877 2.0098,-2.949 0.3462,-1.07 0.3011,-2.319 0.1133,-3.586 -0.1884,-1.27 -0.5346,-2.635 -0.8321,-3.934 -0.3015,-1.316 -0.5551,-2.572 -0.5937,-3.691 -0.0386,-1.12 0.1411,-2.035 0.6445,-2.719 0.5047,-0.686 1.3215,-1.134 2.3926,-1.437 1.0715,-0.304 2.3339,-0.445 3.6699,-0.563 1.318,-0.116 2.7121,-0.209 3.9746,-0.428 1.2602,-0.218 2.4615,-0.572 3.3809,-1.248 0.9203,-0.676 1.615,-1.723 2.2012,-2.867 0.587,-1.146 1.0976,-2.459 1.6093,-3.687 0.5188,-1.246 1.0407,-2.412 1.666,-3.342 0.6245,-0.929 1.3173,-1.568 2.1524,-1.832 0.8387,-0.265 1.7706,-0.149 2.8086,0.236 1.0403,0.386 2.1316,1.018 3.2695,1.715 1.1224,0.687 2.2943,1.44 3.4434,2.014 1.1486,0.573 2.3358,1 3.5039,1 1.1675,0 2.3609,-0.428 3.5195,-1 1.1598,-0.574 2.3436,-1.324 3.4746,-2.012 1.1463,-0.697 2.241,-1.331 3.2735,-1.717 0.774,-0.289 1.4773,-0.427 2.1152,-0.367 z"
       fill="#222222"
       id="path4" />
    <path
       d="m 106.60593,39.0791 c 2.52706,13.2236 3.80648,26.6752 3.81707,40.1611 V 81.627 L 80.170932,106.731 49.821729,81.626 v -2.3848 c 0.02917,-13.4881 1.32755,-26.9402 3.874348,-40.1621 z"
       fill="#222222"
       stroke="white"
       id="path5"
       style="stroke:none;stroke-width:0.981168" />
  </g>
</svg>
