<?xml version="1.0" encoding="UTF-8"?>
<svg class="bottle" fill="none" version="1.1" viewBox="0 0 124 381.51"
   xmlns="http://www.w3.org/2000/svg">
   <path class="bottle-color" d="m43.543 0c-1.2759 0-2.4982 0.50075-3.4004 1.3906-0.9022 0.88986-1.4102 2.097-1.4102 3.3555 0 1.2585 0.50796 2.4656 1.4102 3.3555s2.1245 1.3887 3.4004 1.3887h1.1309l-13.811 98.473c-0.5939 4.302-1.9396 8.4684-3.9785 12.316l-16.506 31.057c-3.3471 6.274-5.1024 13.255-5.1172 20.344v164.25c-7.0755 16.406-5.7074 30.111-3.4043 38.592 0.54876 2.015 1.7604 3.7936 3.4434 5.0586 1.683 1.265 3.7434 1.9446 5.8594 1.9316h101.73c2.109 1e-3 4.159-0.68417 5.832-1.9512 1.673-1.266 2.8759-3.0437 3.4199-5.0527 2.303-8.468 3.6707-22.185-3.4043-38.578v-164.25c-0.015-7.089-1.7702-14.07-5.1172-20.344l-16.455-31.057c-2.0333-3.832-3.3789-7.9816-3.9785-12.266l-13.811-98.523h1.1309c0.6317 0 1.2581-0.12287 1.8418-0.36133 0.5837-0.23846 1.1137-0.58672 1.5605-1.0273 0.4467-0.44062 0.80127-0.96533 1.043-1.541 0.2418-0.5757 0.36523-1.1913 0.36523-1.8145 0-1.2585-0.506-2.4656-1.4082-3.3555-0.9023-0.88987-2.1264-1.3906-3.4023-1.3906z" />
   <path class="bottle-secondary-color" d="m15.071 372.52c-2.3031-8.481-3.6721-20.199 3.3906-36.592v-164.25c0.0092-7.09 1.7656-14.071 5.118-20.343l16.454-31.057c2.0333-3.832 3.3795-7.982 3.9792-12.266l12.59-98.244h-9.1611l-12.577 98.193c-0.5939 4.302-1.9403 8.469-3.9792 12.317l-16.505 31.057c-3.3471 6.274-5.1032 13.254-5.118 20.343v164.25c-7.0755 16.406-5.7065 28.111-3.4034 36.592 0.54876 2.015 1.7593 3.795 3.4423 5.06 1.683 1.265 3.7436 1.944 5.8596 1.931h9.1483c-2.1061 3e-3 -4.1541-0.681-5.825-1.946-1.6709-1.264-2.8709-3.038-3.4129-5.045z"/>
   <path d="m37.905 82.159 24.124-13.343 24.113 13.343-4.5351-32.337h-39.167z" fill="#222" stroke-width=".8645"/>
   <g transform="translate(.00012951 -.49023)" clip-path="url(#clip0_167_60)">
      <path d="m62.707 178.08c-10.311-3e-3 -20.486 2.3166-29.749 6.7831-9.2627 4.4674-17.367 10.962-23.697 18.99v82.307c6.34 8.0149 14.449 14.498 23.711 18.958 9.2621 4.4589 19.433 6.7774 29.74 6.7774 10.307 0 20.478-2.3185 29.74-6.7774 9.2622-4.4598 17.371-10.943 23.711-18.958v-82.307c-6.3307-8.03-14.437-14.525-23.702-18.992-9.2647-4.4664-19.442-6.7859-29.755-6.7812zm0.01291 20.273 32.571 46.642-32.571 46.628-32.586-46.628z" fill="#222220" stroke-width=".94249"/>
   </g>
   <defs>
      <clipPath id="clip0_167_60">
         <rect transform="translate(6,174)" width="113.43" height="141.98" fill="#fff"/>
      </clipPath>
   </defs>
</svg>
