<svg class="cap cap--no" viewBox="0 0 54 17" fill="none" xmlns="http://www.w3.org/2000/svg">
<path class="cap-path" d="M10.2607 0.5H43.7363C46.2813 0.500126 48.7228 1.51826 50.5234 3.33105C52.3241 5.14402 53.3359 7.60362 53.3359 10.1689V12.7227C53.3359 13.6034 53.0105 14.4498 52.4268 15.0986L52.3066 15.2256C51.648 15.8885 50.7551 16.2607 49.8252 16.2607H4.11523C3.24336 16.2607 2.40395 15.9339 1.75977 15.3467L1.63379 15.2256C0.975067 14.5624 0.604541 13.662 0.604492 12.7227V10.1689L0.616211 9.69141C0.662991 8.73861 0.849737 7.79812 1.16992 6.90039L1.34082 6.45508C1.7663 5.42513 2.36498 4.47777 3.10938 3.65527L3.4375 3.31055C4.22277 2.5246 5.13631 1.8825 6.13672 1.41113L6.57129 1.21973C7.59581 0.797778 8.68375 0.557204 9.78711 0.508789L10.2607 0.5Z" />
</svg>
